<svg width="24" height="24" xmlns="http://www.w3.org/2000/svg">
 <title>121 heart</title>

 <g>
  <title>background</title>
  <rect fill="none" id="canvas_background" height="514" width="514" y="-1" x="-1"/>
 </g>
 <g>
  <title>Layer 1</title>
  <path fill="#ff7f00" id="svg_1" d="m17.5,1.917a6.4,6.4 0 0 0 -5.5,3.3a6.4,6.4 0 0 0 -5.5,-3.3a6.8,6.8 0 0 0 -6.5,7.05c0,4.547 4.786,9.513 8.8,12.88a4.974,4.974 0 0 0 6.4,0c4.014001,-3.367001 8.8,-8.333 8.8,-12.88a6.8,6.8 0 0 0 -6.5,-7.05zm-3.585,18.399999a2.973,2.973 0 0 1 -3.83,0c-5.138,-4.310999 -8.085,-8.447 -8.085,-11.349999a4.8,4.8 0 0 1 4.5,-5.05a4.8,4.8 0 0 1 4.5,5.05a1,1 0 0 0 2,0a4.8,4.8 0 0 1 4.5,-5.05a4.8,4.8 0 0 1 4.5,5.05c0,2.903 -2.947001,7.039001 -8.085,11.346l0,0.004z"/>
 </g>
</svg>