<svg width="100" height="150" xmlns="http://www.w3.org/2000/svg">
 <!-- Created with UXWing SVG Editor - https://uxwing.com/svg-icon-editor/ -->
 <g>
  <title>Layer 1</title>
  <g stroke="null" id="svg_1">
   <path fill="#565c64" stroke="null" id="svg_7" d="m51.095589,95.996857l-3.271519,0c-2.303993,0 -4.176403,1.872437 -4.176403,4.176422l0,4.517479c0,2.303978 1.87241,4.176407 4.176403,4.176407l3.271519,0c2.304062,0 4.176414,-1.872429 4.176414,-4.176407l0,-4.517479c0,-2.310883 -1.872353,-4.176422 -4.176414,-4.176422z"/>
   <path fill="#565c64" stroke="null" id="svg_8" d="m28.027887,61.026463l6.03491,0.751751c1.914188,0.236664 3.730927,-0.863121 4.420036,-2.665936c0.870087,-2.276146 2.081242,-4.072002 3.633472,-5.380611c2.19965,-1.85154 4.935131,-2.784271 8.206646,-2.784271c3.389854,0 6.090595,0.890965 8.095264,2.665939c2.004688,1.781933 3.000061,3.911903 3.000061,6.410786c0,1.79586 -0.563808,3.438583 -1.691444,4.928165c-0.730869,0.946655 -2.979168,2.937408 -6.730968,5.979225c-3.758774,3.041817 -6.257591,5.784256 -7.510513,8.220505c-1.280773,2.491989 -1.72625,5.255302 -1.837624,8.025734c-0.097382,2.373596 1.795856,4.350418 4.176407,4.350418l3.410736,0c2.171738,0 3.96759,-1.663597 4.162491,-3.821411c0.139221,-1.552162 0.396755,-2.728516 0.786629,-3.528984c0.654228,-1.37133 2.345673,-3.181107 5.060349,-5.436302c5.255241,-4.350494 8.679901,-7.78907 10.28788,-10.322769c1.60096,-2.526726 2.408394,-5.206581 2.408394,-8.039577c0,-5.116104 -2.17868,-9.605743 -6.543037,-13.461964c-4.357384,-3.856216 -10.232201,-5.784325 -17.610527,-5.784325c-7.016369,0 -12.6754,1.900265 -16.991024,5.707756c-3.675241,3.243679 -5.90962,7.085976 -6.696173,11.519932c-0.243698,1.294685 0.640312,2.505844 1.928036,2.665939z"/>
  </g>
 </g>
</svg>