<svg width="119" height="158.75" xmlns="http://www.w3.org/2000/svg">

 <metadata id="metadata953">image/svg+xml</metadata>
 <g>
  <title>background</title>
  <rect fill="none" id="canvas_background" height="160.75" width="121" y="-1" x="-1"/>
 </g>
 <g>
  <title>Layer 1</title>
  <g id="layer1">
   <g transform="matrix(2.11267 0 0 2.11268 445.396 -385.28)" id="g2126">
    <rect fill="#e6e6e6" stroke-width="2.011" stroke-linecap="round" stroke-linejoin="round" stroke-miterlimit="4" stroke-dashoffset="0" id="rect2105" width="115" height="158.858345" x="2.481225" y="0.473333"/>
    <path stroke="null" fill="#565c64" stroke-width="1.40093" d="m-1560.750488,591.173706c-13.134644,-0.366516 -31.933594,6.59491 -31.933594,12.291016c0,1.290283 -2.665283,2.34375 -5.923828,2.34375c-3.939453,0 -7.58667,3.804688 -10.888672,11.371094c-2.729004,6.255066 -6.968872,15.135681 -9.421875,19.736328c-4.658081,8.729187 -3.088623,34.0047 2.320313,37.351563c1.475098,0.910583 0.237549,9.22168 2.683594,17.697266c3.370605,11.683777 1.646484,17.9375 6.066406,23.03125c8.629761,9.959229 15.830811,33.145264 6.814453,46.902344c-7.025757,10.717163 -8.070801,11.487 -21.470703,12.59375c-2.305908,2.311523 -13.912231,4.762939 -19.660156,7.144531c-1.445801,0.602356 -14.872681,8.489441 -20.293091,9.007813l-4.505737,1.326172l0,50.410156l116.630737,0l96.369263,0l0,-56.455078c-2.947021,-0.89093 -5.579956,-2.041443 -11.234375,-2.902344c-13.603027,-2.059387 -37.193481,-8.741943 -47.083984,-19.052734c-3.796509,-3.950684 -5.337891,-10.450684 -5.337891,-22.960938c0,-14.653748 4.958984,-22.274231 11.039063,-27.494141c6.47229,-5.561707 7.479736,-9.679993 9.455078,-38.722656c1.947266,-28.451477 1.61145,-32.737 -2.689453,-34.388672c-2.703735,-1.033936 -4.916016,-4.277954 -4.916016,-7.212891c0,-2.93634 -2.732178,-8.802368 -6.066406,-13.042969c-3.334229,-4.244812 -6.066406,-9.081177 -6.066406,-10.753906c0,-4.809387 -26.490479,-16.372742 -41.341797,-18.046875c-0.818115,-0.092102 -1.669312,-0.149414 -2.544922,-0.173828z" transform="translate(230.176 35.5735) scale(0.264583 0.264583)" id="path2315_2_"/>
   </g>
  </g>
 </g>
</svg>