<svg width="60" height="60" xmlns="http://www.w3.org/2000/svg">

 <g>
  <title>background</title>
  <rect fill="#565c64" id="canvas_background" height="62" width="62" y="-1" x="-1"/>
 </g>
 <g>
  <title>Layer 1</title>
  <g stroke="null" id="svg_1">
   <path stroke="null" fill="#ff7f00" id="svg_2" d="m17.4,44.25l0,8.849995l23.200003,0l0,-20.649994l-23.200003,0l0,11.799999zm-5.799997,-5.900005l0,-5.899994l-5.800005,0l0,-5.900005l5.800005,0l0,-5.899998l-5.800005,0l0,17.699997l5.800005,0zm0,5.900005l-5.800005,0l0,2.950001c0,3.261135 2.596407,5.899994 5.800005,5.899994l0,-8.849995zm40.599995,-5.900005l0,-17.699997l-5.799995,0l0,5.900003l5.799995,0l0,5.9l-5.799995,0l0,5.899994l5.799995,0zm0,5.900005l-5.799995,0l0,8.849995c3.20586,0 5.799995,-2.638859 5.799995,-5.899994l0,-2.950001zm-11.599995,-23.600002l0,-14.75l-23.200003,0l0,20.650004l23.200003,0l0,-5.900003zm11.599995,-5.899998l0,-2.949998c0,-3.258832 -2.594135,-5.900005 -5.799995,-5.900005l0,8.850003l5.799995,0zm-40.599995,0l0,-8.850003c-3.203598,0 -5.800005,2.641173 -5.800005,5.900005l0,2.949998l5.800005,0zm0,-14.75l34.799999,0c6.408321,0 11.599998,5.283494 11.599998,11.800002l0,35.399999c0,6.51881 -5.191677,11.799999 -11.599998,11.799999l-34.799999,0c-6.406058,0 -11.600002,-5.281189 -11.600002,-11.799999l0,-35.399999c0,-6.516508 5.193944,-11.800002 11.600002,-11.800002z"/>
  </g>
 </g>
</svg>