<svg width="40" height="40" xmlns="http://www.w3.org/2000/svg">

 <g>
  <title>background</title>
  <rect fill="none" id="canvas_background" height="42" width="42" y="-1" x="-1"/>
 </g>
 <g>
  <title>Layer 1</title>
  <path fill="#ff7f00" stroke="null" id="svg_1" d="m31.666666,40l-23.333332,0a8.343334,8.343334 0 0 1 -8.333334,-8.333334l0,-23.333332a8.343334,8.343334 0 0 1 8.333334,-8.333334l23.333332,0a8.343334,8.343334 0 0 1 8.333334,8.333334l0,23.333332a8.343334,8.343334 0 0 1 -8.333334,8.333334zm-23.333332,-36.666667a5,5 0 0 0 -5,5l0,23.333332a5,5 0 0 0 5,5.000002l23.333332,0a5,5 0 0 0 5.000002,-5.000002l0,-23.333332a5,5 0 0 0 -5.000002,-5l-23.333332,0zm7.236666,25.008332a3.946667,3.946667 0 0 1 -1.976666,-0.538332a3.855,3.855 0 0 1 -1.94,-3.368332l0,-8.870002a3.895,3.895 0 0 1 5.833332,-3.381665l8.796669,4.391665a3.893333,3.893333 0 0 1 0.081667,6.806667l-8.960001,4.478334a3.666667,3.666667 0 0 1 -1.835001,0.481665zm-0.041666,-13.333331a0.523333,0.523333 0 0 0 -0.261666,0.07a0.545,0.545 0 0 0 -0.280001,0.486666l0,8.870002a0.561667,0.561667 0 0 0 0.833334,0.488333l8.96,-4.480001a0.523333,0.523333 0 0 0 0.199999,-0.443333a0.541667,0.541667 0 0 0 -0.281666,-0.486666l-8.79,-4.391667a0.77,0.77 0 0 0 -0.38,-0.113333z"/>
 </g>
</svg>