<svg width="24" height="24" xmlns="http://www.w3.org/2000/svg">
 <title>122 star</title>

 <g>
  <title>background</title>
  <rect fill="none" id="canvas_background" height="514" width="514" y="-1" x="-1"/>
 </g>
 <g>
  <title>Layer 1</title>
  <path fill="#ff7f00" id="svg_1" d="m23.836,8.794a3.179,3.179 0 0 0 -3.066999,-2.226l-4.369001,0l-1.327,-4.136a3.227,3.227 0 0 0 -6.146,0l-1.327,4.136l-4.369,0a3.227,3.227 0 0 0 -1.9,5.832l3.556,2.6l-1.352,4.187a3.178,3.178 0 0 0 1.184,3.612999a3.177,3.177 0 0 0 3.8,-0.019001l3.481,-2.561998l3.482,2.559a3.227,3.227 0 0 0 4.983,-3.591l-1.351999,-4.187l3.559999,-2.6a3.177,3.177 0 0 0 1.163,-3.606zm-2.342999,1.991l-4.144001,3.029a1,1 0 0 0 -0.362001,1.116l1.575001,4.869999a1.227,1.227 0 0 1 -1.895,1.365l-4.075,-3a1,1 0 0 0 -1.184,0l-4.074999,3a1.227,1.227 0 0 1 -1.9,-1.365l1.579999,-4.869999a1,1 0 0 0 -0.362,-1.116l-4.144,-3.029a1.227,1.227 0 0 1 0.724,-2.217l5.1,0a1,1 0 0 0 0.952,-0.694l1.55,-4.831a1.227,1.227 0 0 1 2.335999,0l1.55,4.831a1,1 0 0 0 0.952,0.694l5.1,0a1.227,1.227 0 0 1 0.724001,2.217l-0.001999,0z"/>
 </g>
</svg>