<svg width="142" height="80" xmlns="http://www.w3.org/2000/svg">
 <!-- Created with UXWing SVG Editor - https://uxwing.com/svg-icon-editor/ -->

 <g>
  <title>background</title>
  <rect fill="none" id="canvas_background" height="82" width="144" y="-1" x="-1"/>
 </g>
 <g>
  <title>Layer 1</title>
  <g stroke="null" id="svg_1">
   <path stroke="null" d="m71.958298,58.365742l-2.861565,0c-2.015274,0 -3.653053,1.637802 -3.653053,3.653076l0,3.951389c0,2.015274 1.637779,3.653053 3.653053,3.653053l2.861565,0c2.015343,0 3.653069,-1.637779 3.653069,-3.653053l0,-3.951389c0,-2.021309 -1.637726,-3.653076 -3.653069,-3.653076z" id="svg_7" fill="#565c64"/>
   <path stroke="null" d="m51.781216,27.777485l5.278679,0.657551c1.67432,0.207012 3.263397,-0.754963 3.866154,-2.331861c0.761059,-1.990929 1.820446,-3.561741 3.178169,-4.706366c1.924011,-1.619524 4.316704,-2.435375 7.178268,-2.435375c2.965073,0 5.327385,0.779316 7.080849,2.331863c1.753479,1.558645 2.624123,3.421705 2.624123,5.607454c0,1.570822 -0.493164,3.007692 -1.4795,4.310625c-0.639282,0.828022 -2.605843,2.569305 -5.887505,5.229961c-3.287758,2.660645 -5.473457,5.059429 -6.569366,7.190399c-1.120285,2.179703 -1.509933,4.596752 -1.607346,7.02002c-0.085182,2.076168 1.570808,3.805267 3.653046,3.805267l2.983345,0c1.899597,0 3.470406,-1.455132 3.640884,-3.342548c0.121773,-1.357666 0.347046,-2.386604 0.688057,-3.086765c0.57225,-1.19949 2.051735,-2.782478 4.426239,-4.755081c4.596703,-3.805325 7.592224,-6.813019 8.998703,-9.029221c1.400345,-2.21011 2.106598,-4.554146 2.106598,-7.032143c0,-4.475002 -1.90567,-8.402042 -5.723122,-11.775041c-3.811363,-3.372997 -8.950005,-5.059487 -15.403755,-5.059487c-6.137146,0 -11.087048,1.662139 -14.861877,4.992513c-3.214703,2.837214 -5.169083,6.198037 -5.857079,10.076367c-0.213165,1.13245 0.56007,2.191843 1.686436,2.331867z" id="svg_8" fill="#565c64"/>
  </g>
 </g>
</svg>