<svg width="119" height="158.75" xmlns="http://www.w3.org/2000/svg">
 <!-- Created with UXWing SVG Editor - https://uxwing.com/svg-icon-editor/ -->

 <g>
  <title>background</title>
  <rect fill="none" id="canvas_background" height="160.75" width="121.0625" y="-1" x="-1"/>
 </g>
 <g>
  <title>Layer 1</title>
  <metadata id="svg_7">image/svg+xml</metadata>

  <g stroke="null" id="svg_9">
   <path fill="#565c64" fill-rule="evenodd" stroke-width="1px" id="svg_6" d="m73.019066,27.190168c4.670578,2.818918 8.62632,3.715635 13.348297,13.933165c6.866127,14.857227 6.790787,18.183342 9.6717,13.004211c-0.550194,1.341602 -1.063988,2.669674 -0.662445,3.657436c0.574135,0.606735 1.148247,0.374695 1.722366,0c-0.337563,0.493042 0.117897,2.44025 0.927437,0.948227c0.574821,-1.059494 0.529945,-1.08371 0.529945,-1.08371c0.399948,0.934887 0.186287,2.093544 0.264961,2.438301c0.79496,1.00013 1.589882,-0.702816 2.384811,-2.438301c0.177223,1.459923 0.058937,3.057411 -1.059898,4.605667c2.640533,1.119987 2.699318,-2.092308 2.119827,-4.334732c0.87851,1.438156 1.576065,3.049793 1.059906,5.824799c0.309128,0.54467 0.618294,-0.667564 0.927422,-1.083687c-0.089279,0.80064 -0.001389,2.242325 -0.728691,2.472145c0.472687,0.170677 1.072906,0.660454 1.954224,-0.338631c0.089706,2.431427 -0.615334,4.089386 -3.941566,3.386505c0.989998,0.661133 1.147659,5.321815 2.98101,1.930313c0.65593,1.011589 -0.486069,1.686462 -1.026794,3.759018c-0.324043,4.856979 -3.409889,4.223343 -5.167061,6.231178c-0.453316,2.179291 -0.834816,2.791855 -1.512581,4.402351c-0.43222,1.027008 2.624893,3.305573 2.744156,-1.131081c0.502129,4.466774 -3.361191,2.779594 -4.726921,4.891693c-0.489822,0.481575 -1.033379,0.858788 -1.638618,1.116081c-4.148689,2.561783 -6.417595,9.514885 -8.214333,10.362732c-0.603821,0.62693 -4.468506,0.553123 -6.491974,0.203186c-1.018349,2.472336 -1.819946,3.681984 -3.279106,5.012047c-1.610176,3.519005 -2.87812,11.668083 2.0867,15.713402c8.241013,6.714737 10.756142,8.691315 21.297638,10.938431c23.372803,4.98233 21.198265,17.447311 25.626625,27.499237l-129.216103,-0.107407c3.818448,-9.492615 2.032279,-22.091736 25.553352,-27.899811c8.54689,-2.110458 12.04871,-4.091721 19.244057,-10.328873c4.487946,-3.890259 3.578144,-11.829361 2.583542,-16.119781c-3.577126,-0.398872 -5.429874,-1.38546 -6.094517,-2.776924c-1.713417,0.001122 -3.572598,0.315208 -3.577206,-3.352654c-4.637995,2.1772 -6.734282,-1.470383 -8.876776,-5.012039c-2.120108,-1.057625 -4.745838,-0.655594 -5.465166,-5.757057l-0.596214,-1.659409c-0.980093,-1.398148 -0.525866,-3.360336 -0.43058,-5.181351c0.62932,0.961739 0.993666,1.198914 1.622986,1.557785c-4.723482,-5.702866 -1.903576,-9.180962 -2.550419,-13.681511c1.168625,0.656296 2.134912,0.327011 3.113497,-0.237053l-2.053576,-0.474098c0,0 8.504642,-0.161079 3.974667,-0.677307c-3.496391,-0.398445 -3.31222,-2.404419 -3.31222,-2.404419c1.016939,0.578415 1.928684,1.354858 2.947884,0.440247c-0.00659,-1.208542 0.352369,-2.187057 1.490501,-2.675346c-1.438839,-2.152927 0.893654,-7.427406 -0.198732,-9.787014c0.647261,0.459774 1.082703,1.533134 2.219191,0.57571c0.725161,-1.946529 1.109306,-2.651306 2.186079,-2.980145c0.645203,-1.943329 1.619469,-3.314732 3.146601,-3.725155c0,0 1.99563,-6.434372 3.378489,-8.703331c3.369888,-5.529251 4.802723,-6.719908 11.162216,-10.783716c6.257496,-3.998653 11.134392,-4.224401 14.275703,-2.607622c1.793598,0.923145 2.964439,1.049822 3.775944,1.049822c2.335114,0 4.132828,-2.454304 10.499763,1.388474z"/>
  </g>
 </g>
</svg>