<svg width="48" height="23" xmlns="http://www.w3.org/2000/svg">
 <!-- Created with UXWing SVG Editor - https://uxwing.com/svg-icon-editor/ -->
 <g>
  <title>background</title>
  <rect fill="none" id="canvas_background" height="25" width="50" y="-1" x="-1"/>
 </g>
 <g>
  <title>Layer 1</title>
  <g id="svg_16">
   <path d="m23.666843,8.764789a3.179,3.179 0 0 0 -3.066998,-2.226013l-4.368988,0l-1.327011,-4.135994a3.227,3.227 0 0 0 -6.145996,0l-1.326996,4.135994l-4.369006,0a3.227,3.227 0 0 0 -1.900001,5.832001l3.556,2.600006l-1.352005,4.187003a3.178,3.178 0 0 0 1.184006,3.612999a3.177,3.177 0 0 0 3.799998,-0.019012l3.481003,-2.561996l3.48201,2.559006a3.227,3.227 0 0 0 4.982986,-3.590996l-1.35199,-4.187003l3.559998,-2.600006a3.177,3.177 0 0 0 1.162991,-3.606003l0,0.000015zm-2.342983,1.990997l-4.144012,3.028992a1,1 0 0 0 -0.362,1.116013l1.574993,4.869994a1.227,1.227 0 0 1 -1.895,1.36499l-4.074993,-3a1,1 0 0 0 -1.184002,0l-4.074997,3a1.227,1.227 0 0 1 -1.900003,-1.36499l1.580004,-4.869994a1,1 0 0 0 -0.362003,-1.116013l-4.144003,-3.028992a1.227,1.227 0 0 1 0.724006,-2.21701l5.100001,0a1,1 0 0 0 0.951996,-0.694l1.550003,-4.830994a1.227,1.227 0 0 1 2.335999,0l1.549995,4.830994a1,1 0 0 0 0.951996,0.694l5.100006,0a1.227,1.227 0 0 1 0.723999,2.21701l-0.001984,0z" id="svg_1" fill="#ff7f00"/>
   <path d="m47.908459,8.604044a3.179,3.179 0 0 0 -3.067001,-2.226012l-4.368988,0l-1.327011,-4.13601a3.227,3.227 0 0 0 -6.145996,0l-1.327,4.13601l-4.369003,0a3.227,3.227 0 0 0 -1.899986,5.832l3.555996,2.600006l-1.352009,4.186996a3.178,3.178 0 0 0 1.18401,3.613007a3.177,3.177 0 0 0 3.799988,-0.019012l3.481003,-2.561996l3.48201,2.559006a3.227,3.227 0 0 0 4.982986,-3.591003l-1.35199,-4.186996l3.559998,-2.600006a3.177,3.177 0 0 0 1.162994,-3.606003l0,0.000015zm-2.342987,1.990997l-4.144012,3.028992a1,1 0 0 0 -0.362,1.116013l1.574997,4.869995a1.227,1.227 0 0 1 -1.895004,1.36499l-4.074982,-3a1,1 0 0 0 -1.184006,0l-4.074997,3a1.227,1.227 0 0 1 -1.900013,-1.36499l1.580006,-4.869995a1,1 0 0 0 -0.362,-1.116013l-4.143997,-3.028992a1.227,1.227 0 0 1 0.723995,-2.21701l5.10001,0a1,1 0 0 0 0.952,-0.693999l1.549999,-4.830995a1.227,1.227 0 0 1 2.335999,0l1.549988,4.830995a1,1 0 0 0 0.951996,0.693999l5.100002,0a1.227,1.227 0 0 1 0.724003,2.21701l-0.001984,0z" id="svg_2" fill="#ff7f00"/>
  </g>
 </g>
</svg>